<svg width="17" height="15" viewBox="0 0 17 15" fill="none" xmlns="http://www.w3.org/2000/svg">
<g id="Group 316">
<g id="Group 336">
<rect id="Rectangle 100" width="16.1765" height="15" rx="2" fill="#36A410"/>
<g id="&#240;&#159;&#166;&#134; icon &#34;dollar&#34;">
<path id="Vector" d="M7.58189 0.850586V2.51851H6.72818C5.95415 2.51851 5.30533 3.46923 5.30533 4.60342V5.43738C5.30533 6.57157 5.80617 7.50561 6.54606 7.78915L9.46006 8.88999C9.61942 8.9567 9.84708 9.37368 9.84708 9.62387V10.4578C9.84708 10.6913 9.72187 10.8748 9.56251 10.8748H6.7168C6.58021 10.8748 6.47776 10.8081 6.43223 10.7747V9.20689H5.29395V10.8748C5.29395 11.4419 5.5216 11.9256 5.79479 12.1758C6.05659 12.4427 6.3867 12.5427 6.7168 12.5427H7.57051V14.2107H8.70879V12.5427H9.56251C10.3479 12.5427 10.9854 11.6087 10.9854 10.4578V9.62387C10.9854 8.48968 10.4845 7.55565 9.74463 7.2721L6.83063 6.17127C6.67127 6.10455 6.44361 5.68757 6.44361 5.43738V4.60342C6.44361 4.36991 6.56882 4.18644 6.72818 4.18644H9.57389C9.6991 4.18644 9.81293 4.25315 9.85846 4.28651V5.85436H10.9967V4.18644C10.9967 3.61934 10.7691 3.13564 10.4959 2.88545C10.2341 2.61859 9.90399 2.51851 9.57389 2.51851H8.72018V0.850586L7.58189 0.850586Z" fill="white"/>
</g>
</g>
</g>
</svg>
