<svg width="38" height="36" viewBox="0 0 38 36" fill="none" xmlns="http://www.w3.org/2000/svg">
<g id="Group 316">
<g id="Group 336">
<rect id="Rectangle 100" width="38" height="35.2364" rx="4" fill="#36A410"/>
<g id="&#240;&#159;&#166;&#134; icon &#34;dollar&#34;">
<path id="Vector" d="M17.8105 2V5.91811H15.8051C13.9868 5.91811 12.4627 8.15143 12.4627 10.8157V12.7748C12.4627 15.4391 13.6392 17.6333 15.3772 18.2993L22.2225 20.8853C22.5968 21.042 23.1316 22.0215 23.1316 22.6092V24.5683C23.1316 25.1168 22.8375 25.5478 22.4632 25.5478H15.7783C15.4575 25.5478 15.2168 25.3911 15.1098 25.3127V21.6297H12.4359V25.5478C12.4359 26.88 12.9707 28.0162 13.6124 28.604C14.2274 29.2309 15.0029 29.4659 15.7783 29.4659H17.7838V33.384H20.4577V29.4659H22.4632C24.3082 29.4659 25.8056 27.2718 25.8056 24.5683V22.6092C25.8056 19.9449 24.629 17.7508 22.891 17.0847L16.0457 14.4988C15.6714 14.342 15.1366 13.3625 15.1366 12.7748V10.8157C15.1366 10.2672 15.4307 9.83622 15.8051 9.83622H22.4899C22.784 9.83622 23.0514 9.99294 23.1584 10.0713V13.7543H25.8323V9.83622C25.8323 8.50406 25.2975 7.36781 24.6558 6.78009C24.0408 6.15319 23.2653 5.91811 22.4899 5.91811H20.4844V2L17.8105 2Z" fill="white"/>
</g>
</g>
</g>
</svg>
